<?xml version="1.0" standalone="no"?>
<!DOCTYPE svg PUBLIC "-//W3C//DTD SVG 20010904//EN"
 "http://www.w3.org/TR/2001/REC-SVG-20010904/DTD/svg10.dtd">
<svg version="1.0" xmlns="http://www.w3.org/2000/svg"
 width="1100.000000pt" height="1100.000000pt" viewBox="0 0 1100.000000 1100.000000"
 preserveAspectRatio="xMidYMid meet">
<metadata>
Created by potrace 1.14, written by Peter Selinger 2001-2017
</metadata>
<g transform="translate(0.000000,1100.000000) scale(0.100000,-0.100000)"
fill="#000000" stroke="none">
<path d="M4718 10484 c-2 -1 -48 -5 -103 -9 -55 -3 -107 -8 -115 -10 -8 -2
-42 -6 -75 -10 -53 -5 -118 -15 -202 -30 -16 -3 -44 -8 -63 -11 -19 -3 -93
-19 -165 -36 -71 -16 -137 -31 -145 -33 -15 -3 -32 -8 -227 -69 -235 -73 -561
-216 -787 -344 -60 -34 -110 -62 -113 -62 -2 0 -9 -4 -16 -10 -7 -5 -75 -51
-152 -102 -351 -231 -676 -519 -945 -838 -30 -36 -57 -67 -60 -70 -7 -7 -181
-238 -203 -270 -360 -523 -599 -1086 -728 -1709 -11 -53 -22 -112 -24 -131 -4
-33 -14 -97 -20 -130 -3 -14 -6 -38 -21 -170 -26 -229 -26 -755 1 -960 2 -14
6 -52 10 -85 25 -229 121 -670 181 -835 3 -8 5 -16 5 -17 -1 -6 74 -206 120
-320 52 -133 217 -475 231 -481 4 -2 8 -8 8 -12 0 -13 112 -199 193 -320 206
-309 463 -603 755 -866 29 -27 81 -87 114 -134 52 -73 201 -262 233 -296 5 -6
37 -42 70 -80 139 -158 350 -360 560 -533 254 -209 662 -461 970 -598 39 -18
96 -43 127 -57 31 -14 60 -26 63 -26 4 0 21 -6 38 -14 80 -36 334 -122 432
-146 17 -4 64 -17 105 -28 110 -29 220 -53 360 -77 82 -13 105 -17 215 -31 28
-3 57 -8 66 -9 59 -11 271 -20 489 -20 259 0 414 8 565 30 22 3 58 8 80 10
292 36 688 141 1018 269 129 50 128 49 299 130 365 170 759 433 1080 717 178
158 433 427 548 577 14 18 32 41 40 51 191 231 445 656 587 981 30 69 61 139
68 155 7 17 25 62 39 100 150 414 228 740 281 1185 21 180 28 698 12 885 -9
94 -33 300 -42 347 -3 16 -7 40 -9 55 -19 148 -111 535 -153 648 -8 22 -16 47
-18 56 -7 36 -90 260 -138 373 -70 166 -181 388 -262 526 -37 63 -73 124 -79
135 -62 111 -245 363 -396 545 -102 124 -390 418 -505 517 -97 83 -101 87
-135 113 -18 14 -38 30 -44 36 -22 21 -204 153 -306 221 -93 63 -190 122 -315
194 -64 36 -324 164 -395 194 -36 15 -77 37 -92 49 -14 11 -37 29 -50 39 -53
43 -341 229 -443 287 -319 182 -708 339 -1061 430 -112 29 -336 77 -393 84
-14 2 -64 9 -111 16 -182 25 -375 37 -607 37 -134 0 -244 -1 -245 -3z m592
-357 c25 -3 77 -8 115 -12 39 -3 77 -8 85 -10 8 -2 35 -7 60 -10 38 -5 95 -15
235 -41 150 -28 498 -131 489 -146 -3 -4 -9 -6 -13 -4 -12 8 -251 20 -381 20
-115 -1 -359 -11 -415 -18 -16 -2 -59 -7 -95 -11 -78 -8 -87 -9 -215 -29 -486
-76 -1009 -253 -1430 -484 -134 -74 -190 -105 -215 -122 -14 -9 -56 -37 -95
-61 -261 -163 -525 -377 -780 -633 -205 -206 -305 -321 -457 -526 -60 -81
-208 -299 -208 -307 0 -2 -15 -28 -34 -56 -73 -112 -206 -370 -281 -542 -30
-71 -60 -139 -64 -150 -49 -111 -140 -390 -186 -570 -60 -236 -94 -423 -130
-715 -27 -219 -27 -756 0 -985 2 -16 7 -57 11 -90 3 -33 8 -67 9 -75 7 -38 16
-98 19 -125 17 -133 107 -518 145 -617 20 -53 2 -28 -61 85 -134 238 -234 464
-332 757 -22 67 -73 241 -81 280 -2 8 -9 38 -15 65 -15 64 -19 83 -25 120 -3
17 -8 37 -10 45 -3 8 -7 31 -9 50 -3 20 -7 47 -10 60 -4 14 -8 39 -10 55 -11
94 -18 153 -22 175 -29 186 -26 726 6 967 6 43 13 96 16 118 66 503 273 1084
550 1546 93 154 227 354 254 379 3 3 17 21 30 40 13 19 27 37 30 40 3 3 25 30
50 60 82 101 104 124 265 285 162 162 196 194 295 275 30 25 57 47 60 50 11
12 200 150 270 197 337 225 730 409 1105 518 138 40 337 88 410 99 17 3 62 10
100 16 39 6 88 14 110 16 22 3 51 7 65 10 14 2 70 7 125 10 55 4 102 8 103 10
6 4 511 -4 562 -9z m840 -741 c58 -4 123 -9 145 -12 22 -3 56 -6 75 -8 360
-37 794 -156 1160 -318 142 -63 339 -163 396 -202 44 -30 140 -139 269 -306
37 -47 72 -92 78 -100 33 -42 211 -322 254 -400 191 -345 347 -741 423 -1075
7 -27 14 -59 16 -70 15 -63 45 -226 50 -265 3 -25 7 -52 9 -60 2 -8 7 -40 11
-70 3 -30 7 -66 9 -80 20 -140 27 -604 11 -785 -4 -55 -10 -116 -11 -135 -4
-40 -15 -125 -21 -155 -2 -11 -6 -36 -9 -55 -3 -19 -7 -48 -9 -65 -24 -171
-119 -522 -205 -752 -123 -332 -325 -709 -525 -983 -46 -62 -175 -229 -191
-246 -5 -6 -35 -40 -65 -75 -77 -89 -259 -271 -360 -359 -47 -41 -87 -77 -90
-80 -3 -3 -54 -44 -115 -91 -282 -219 -590 -401 -910 -536 -122 -51 -156 -65
-165 -68 -3 -1 -76 -24 -162 -53 -162 -53 -325 -96 -443 -118 -16 -3 -48 -9
-70 -14 -22 -5 -65 -12 -95 -15 -30 -4 -58 -9 -61 -11 -3 -2 -36 -6 -73 -9
-37 -4 -76 -8 -88 -10 -88 -17 -499 -24 -683 -12 -424 29 -809 116 -1215 274
-224 88 -569 266 -620 321 -151 160 -368 460 -503 695 -59 102 -184 347 -207
407 -7 19 -23 58 -35 85 -39 89 -142 376 -151 420 -2 11 -22 89 -44 174 -21
84 -41 165 -44 180 -2 14 -9 49 -14 76 -6 28 -13 74 -17 104 -4 30 -9 63 -11
75 -2 12 -7 44 -10 71 -3 28 -7 57 -9 65 -25 98 -26 765 -1 920 2 14 7 54 11
90 3 36 17 124 30 195 13 72 26 141 28 155 3 14 13 54 22 90 9 36 19 75 21 87
20 108 136 446 216 627 50 115 174 362 199 398 11 14 19 29 19 33 0 3 16 31
35 61 19 30 35 56 35 59 0 10 229 337 250 355 3 3 32 39 65 80 33 41 75 93 95
115 50 57 316 323 371 370 100 88 221 185 279 225 19 13 37 27 40 30 8 9 180
124 260 173 150 92 355 198 505 260 50 21 99 42 110 47 133 63 569 188 750
216 17 3 53 9 80 14 66 12 107 18 185 25 36 4 76 9 90 11 14 2 84 7 155 10 72
4 131 7 132 8 5 4 252 -2 343 -8z m2861 -1453 c35 -43 66 -80 69 -83 36 -34
246 -336 315 -452 251 -426 430 -887 520 -1338 10 -47 54 -325 59 -370 37
-320 26 -838 -24 -1140 -5 -30 -12 -68 -14 -85 -12 -74 -18 -106 -37 -190 -45
-203 -115 -428 -202 -650 -45 -113 -193 -423 -244 -510 -10 -17 -31 -53 -47
-80 -50 -86 -211 -325 -262 -390 -14 -16 -28 -34 -32 -40 -101 -138 -350 -405
-497 -535 -108 -95 -119 -105 -180 -153 -33 -27 -67 -54 -75 -60 -127 -102
-561 -377 -594 -377 -4 0 -23 -10 -44 -23 -87 -53 -379 -175 -565 -236 -120
-39 -408 -115 -477 -125 -19 -3 -48 -8 -65 -11 -126 -23 -230 -37 -390 -52
-103 -10 -546 -10 -650 -1 -72 7 -172 19 -280 33 -22 3 -74 12 -115 20 -41 8
-87 17 -102 20 -119 22 -310 75 -478 132 -91 30 -169 58 -175 62 -5 4 -32 16
-60 26 -51 18 -375 175 -455 220 -54 30 -43 31 58 6 43 -11 93 -23 112 -26 19
-3 53 -10 75 -15 22 -5 58 -11 80 -14 23 -4 52 -9 65 -11 14 -3 43 -7 66 -9
22 -2 61 -7 85 -10 159 -22 304 -30 529 -30 174 1 371 9 440 19 14 2 45 6 70
9 142 17 234 32 330 51 14 3 34 7 45 9 11 2 86 20 166 39 398 97 838 279 1187
491 73 45 141 86 151 91 50 29 326 230 357 260 6 5 30 26 54 45 24 19 61 51
84 70 48 40 378 369 421 420 137 159 264 324 350 455 22 33 43 62 46 65 18 15
184 309 255 451 210 419 338 817 423 1309 11 63 23 144 26 180 4 36 8 81 11
100 26 217 25 752 -1 940 -3 19 -7 55 -10 80 -11 93 -38 260 -60 375 -24 122
-93 381 -130 490 -87 252 -124 347 -206 521 -23 49 -43 92 -46 97 -15 25 13
-3 68 -70z"/>
</g>
</svg>
