<svg width="85" height="30" viewBox="0 0 85 30" fill="none" xmlns="http://www.w3.org/2000/svg">
<path d="M21.9965 13.6C21.9965 18.7348 17.8126 22.9 12.6482 22.9C7.48393 22.9 3.3 18.7348 3.3 13.6C3.3 8.46517 7.48393 4.3 12.6482 4.3C17.8126 4.3 21.9965 8.46517 21.9965 13.6Z" stroke="#2F2523" stroke-width="0.6"/>
<path d="M23.9085 15.2002C23.9085 20.2774 19.7708 24.4002 14.6583 24.4002C9.54573 24.4002 5.40803 20.2774 5.40803 15.2002C5.40803 10.123 9.54573 6.0002 14.6583 6.0002C19.7708 6.0002 23.9085 10.123 23.9085 15.2002Z" stroke="#B09B96" stroke-width="1.6"/>
<line x1="29.0286" y1="5.2002" x2="29.0286" y2="25.2002" stroke="#B09B96" stroke-width="0.6"/>
<path d="M41.6209 11.1521L37.7553 15.5425L37.6145 15.4017L35.5025 17.7953L35.2337 16.1569L39.5729 11.1521H41.6209ZM36.1041 11.1521V19.6001H34.3377V11.1521H36.1041ZM38.2417 14.0705L41.7233 19.6001H39.7009L36.8849 15.0561L38.2417 14.0705ZM45.835 11.0241C46.603 11.0241 47.2771 11.1564 47.8574 11.4209C48.4376 11.6854 48.9326 12.078 49.3422 12.5985L48.3566 13.7377C48.0067 13.294 47.6227 12.9697 47.2046 12.7649C46.795 12.5516 46.3171 12.4449 45.771 12.4449C45.4126 12.4449 45.1139 12.4918 44.875 12.5857C44.6446 12.6796 44.4739 12.8033 44.363 12.9569C44.2606 13.1105 44.2094 13.2812 44.2094 13.4689C44.2094 13.6993 44.299 13.8956 44.4782 14.0577C44.6574 14.2113 44.9646 14.3393 45.3998 14.4417L46.9742 14.8001C47.8104 14.9878 48.4078 15.2694 48.7662 15.6449C49.1331 16.0118 49.3166 16.4897 49.3166 17.0785C49.3166 17.6332 49.1715 18.111 48.8814 18.5121C48.5912 18.9046 48.1859 19.2076 47.6654 19.4209C47.1448 19.6257 46.5475 19.7281 45.8734 19.7281C45.2846 19.7281 44.7427 19.6598 44.2478 19.5233C43.7614 19.3782 43.3262 19.182 42.9422 18.9345C42.5582 18.687 42.2382 18.4012 41.9822 18.0769L42.9806 16.8865C43.1768 17.1596 43.42 17.4028 43.7102 17.6161C44.0003 17.8294 44.3288 18.0001 44.6958 18.1281C45.0712 18.2476 45.4638 18.3073 45.8734 18.3073C46.2232 18.3073 46.5176 18.2689 46.7566 18.1921C47.004 18.1068 47.1875 17.9916 47.307 17.8465C47.435 17.6929 47.499 17.5094 47.499 17.2961C47.499 17.0742 47.4222 16.8865 47.2686 16.7329C47.1235 16.5708 46.8504 16.447 46.4494 16.3617L44.7342 15.9777C44.2392 15.8582 43.8126 15.7046 43.4542 15.5169C43.1043 15.3206 42.8355 15.0732 42.6478 14.7745C42.4686 14.4673 42.379 14.1046 42.379 13.6865C42.379 13.183 42.5155 12.7308 42.7886 12.3297C43.0616 11.9286 43.4542 11.6129 43.9662 11.3825C44.4867 11.1436 45.1096 11.0241 45.835 11.0241ZM54.5333 11.1521C55.1818 11.1521 55.7365 11.263 56.1973 11.4849C56.6581 11.6982 57.0122 12.0097 57.2597 12.4193C57.5157 12.8204 57.6437 13.3068 57.6437 13.8785C57.6437 14.4502 57.5157 14.9409 57.2597 15.3505C57.0122 15.7516 56.6581 16.063 56.1973 16.2849C55.7365 16.4982 55.1818 16.6049 54.5333 16.6049H52.7541V19.6001H50.9877V11.1521H54.5333ZM54.2645 15.2097C54.7935 15.2097 55.1903 15.0988 55.4549 14.8769C55.7194 14.6465 55.8517 14.3137 55.8517 13.8785C55.8517 13.4348 55.7194 13.102 55.4549 12.8801C55.1903 12.6582 54.7935 12.5473 54.2645 12.5473H52.7541V15.2097H54.2645ZM65.8346 19.6001H64.0042L63.3002 17.5393H60.0618L59.3578 19.6001H57.553L60.6378 11.1521H62.7498L65.8346 19.6001ZM60.4586 16.2337H62.9034L61.6746 12.5473L60.4586 16.2337ZM74.0072 17.2705C73.845 17.8166 73.589 18.2732 73.2392 18.6401C72.8893 19.007 72.4754 19.2801 71.9976 19.4593C71.5197 19.6385 70.9949 19.7281 70.4232 19.7281C69.5869 19.7281 68.8616 19.5532 68.2472 19.2033C67.6413 18.8534 67.172 18.3542 66.8392 17.7057C66.5149 17.0572 66.3528 16.2806 66.3528 15.3761C66.3528 14.4716 66.5149 13.695 66.8392 13.0465C67.172 12.398 67.6413 11.8988 68.2472 11.5489C68.8616 11.199 69.5784 11.0241 70.3976 11.0241C70.9778 11.0241 71.5026 11.1052 71.972 11.2673C72.4413 11.4209 72.8381 11.6598 73.1624 11.9841C73.4952 12.3084 73.7384 12.718 73.892 13.2129L72.292 13.8913C72.1469 13.3793 71.925 13.0166 71.6264 12.8033C71.3277 12.5814 70.9437 12.4705 70.4744 12.4705C70.0136 12.4705 69.6082 12.5814 69.2584 12.8033C68.917 13.0252 68.6525 13.3537 68.4648 13.7889C68.277 14.2156 68.1832 14.7446 68.1832 15.3761C68.1832 15.999 68.2685 16.5281 68.4392 16.9633C68.6184 17.3985 68.8786 17.727 69.22 17.9489C69.5613 18.1708 69.9794 18.2817 70.4744 18.2817C70.9352 18.2817 71.332 18.158 71.6648 17.9105C72.0061 17.663 72.245 17.2876 72.3816 16.7841L74.0072 17.2705ZM75.5127 19.6001V11.1521H81.8487V12.5729H77.2791V14.6721H80.8759V16.0289H77.2791V18.1793H82.0279V19.6001H75.5127Z" fill="#B09B96"/>
</svg>
